<svg width="200" height="200" viewBox="0 0 200 200" fill="none" xmlns="http://www.w3.org/2000/svg">
<rect width="200" height="200" rx="12" fill="#1B1B1B"/>
<path fill-rule="evenodd" clip-rule="evenodd" d="M65.2449 78.119L46.0612 59.0855C45.5816 58.8476 45.8214 58.1338 46.5408 58.1338H64.0459C64.5255 58.1338 64.7653 57.8959 64.7653 57.4201V46.7138C64.7653 46.2379 64.5255 46 64.0459 46H36.2296H24.7194C24.2398 46 24 46.2379 24 46.7138V58.1338V85.7323C24 86.2082 24.2398 86.4461 24.7194 86.4461H35.5102C35.9898 86.4461 36.2296 86.2082 36.2296 85.7323V68.3643C36.2296 67.8885 36.949 67.4126 37.4286 67.8885L54.2143 84.5428C57.0918 87.3978 58.7704 91.4424 58.7704 95.487V109.286C58.7704 109.762 59.0102 110 59.4898 110H70.2806C70.7602 110 71 109.762 71 109.286V92.3941C71 86.9219 68.8418 81.9257 65.2449 78.119Z" fill="#D3F13A"/>
<path d="M151.989 77.3171C151.989 87.0443 144.065 94.6364 133.02 94.6364H107.808L107.568 61.4213H134.46C145.025 61.184 151.989 68.0643 151.989 77.3171ZM176 153L146.226 106.499C159.672 102.94 168.797 90.6031 168.797 76.8426C168.797 59.286 154.39 46 133.74 46H91L91.2401 153H108.048V109.583H129.178L156.551 152.763L176 153Z" fill="#D3F13A"/>
</svg>
